<svg width="17" height="17" viewBox="0 0 17 17" fill="none" xmlns="http://www.w3.org/2000/svg">
	<path d="M6.65529 2.49102e-08C5.59209 0.000115144 4.54438 0.254915 3.59987 0.74307C2.65537 1.23123 1.84155 1.93853 1.22655 2.80577C0.611546 3.67302 0.213254 4.67497 0.0650145 5.72774C-0.0832248 6.78052 0.0229024 7.85349 0.374512 8.85683C0.726121 9.86017 1.31298 10.7647 2.08596 11.4947C2.85895 12.2246 3.79556 12.7588 4.8174 13.0525C5.83923 13.3462 6.91656 13.3908 7.95918 13.1826C9.00181 12.9745 9.9794 12.5196 10.8101 11.8561L15.7467 16.7924C15.8861 16.9271 16.073 17.0017 16.2669 17C16.4608 16.9983 16.6463 16.9205 16.7834 16.7834C16.9205 16.6463 16.9983 16.4608 17 16.2669C17.0017 16.073 16.9271 15.8862 16.7924 15.7467L11.8559 10.8104C12.6383 9.83115 13.1283 8.65089 13.2695 7.40544C13.4107 6.15999 13.1973 4.89999 12.654 3.77047C12.1106 2.64094 11.2593 1.6878 10.198 1.02076C9.1368 0.353721 7.90877 -0.000108398 6.65529 2.49102e-08V2.49102e-08ZM1.47839 6.65573C1.47839 5.28279 2.02382 3.96608 2.99467 2.99526C3.96553 2.02445 5.28229 1.47905 6.65529 1.47905C8.02829 1.47905 9.34505 2.02445 10.3159 2.99526C11.2868 3.96608 11.8322 5.28279 11.8322 6.65573C11.8322 8.02867 11.2868 9.34538 10.3159 10.3162C9.34505 11.287 8.02829 11.8324 6.65529 11.8324C5.28229 11.8324 3.96553 11.287 2.99467 10.3162C2.02382 9.34538 1.47839 8.02867 1.47839 6.65573V6.65573Z" fill="black"/>
</svg>
