<svg width="15" height="10" viewBox="0 0 15 10" fill="none" xmlns="http://www.w3.org/2000/svg">
<path fill-rule="evenodd" clip-rule="evenodd" d="M0.50061 4.99961C0.50061 4.86701 0.553289 4.73983 0.647057 4.64606C0.740825 4.55229 0.868002 4.49961 1.00061 4.49961H12.7936L9.64661 1.35361C9.55272 1.25973 9.49998 1.13239 9.49998 0.999615C9.49998 0.86684 9.55272 0.739501 9.64661 0.645615C9.74049 0.551728 9.86783 0.498984 10.0006 0.498984C10.1334 0.498984 10.2607 0.551728 10.3546 0.645615L14.3546 4.64561C14.4012 4.69206 14.4381 4.74724 14.4633 4.80798C14.4885 4.86873 14.5015 4.93385 14.5015 4.99961C14.5015 5.06538 14.4885 5.1305 14.4633 5.19125C14.4381 5.25199 14.4012 5.30717 14.3546 5.35361L10.3546 9.35361C10.2607 9.4475 10.1334 9.50024 10.0006 9.50024C9.86783 9.50024 9.74049 9.4475 9.64661 9.35361C9.55272 9.25973 9.49998 9.13239 9.49998 8.99961C9.49998 8.86684 9.55272 8.7395 9.64661 8.64561L12.7936 5.49961H1.00061C0.868002 5.49961 0.740825 5.44693 0.647057 5.35317C0.553289 5.2594 0.50061 5.13222 0.50061 4.99961Z" fill="white"/>
</svg>
